<svg width="106" height="32" viewBox="0 0 106 32" fill="none" xmlns="http://www.w3.org/2000/svg">
<path d="M7.92497 4.48601H0.407181V0.407898H19.9136V4.48601H12.3978V24.1944H7.92704L7.92497 4.48601Z" fill="#4285F4"/>
<path d="M27.6675 24.7976L35.7084 16.8339L36.1729 16.0077L36.6263 15.1518L36.8292 14.4593L27.2866 8.50797L26.8725 8.19635L26.7441 8.8099L27.6675 24.7976Z" fill="#FFF464"/>
<path d="M27.2892 25.1625L27.6674 24.7976L36.0983 16.0084L27.6674 8.19635L27.2865 8.50797L20.4188 10.188L17.986 12.7675L17.9101 15.1532L18.3635 16.0091L26.8696 24.7982L27.2892 25.1625Z" fill="#FFF464"/>
<path d="M94.3089 16.3699V19.5256C94.5297 19.2402 94.8128 19.0095 95.1365 18.8511C95.4601 18.6928 95.8156 18.611 96.1757 18.6122C96.5692 18.5855 96.9637 18.645 97.3319 18.7865C97.7002 18.9281 98.0334 19.1482 98.3084 19.4318C98.5834 19.7154 98.7937 20.0556 98.9246 20.4289C99.0556 20.8021 99.1041 21.1995 99.0667 21.5934C99.0933 21.9879 99.0362 22.3837 98.8992 22.7545C98.7622 23.1253 98.5483 23.4627 98.2718 23.7445C97.9953 24.0263 97.6623 24.246 97.295 24.3892C96.9276 24.5324 96.5341 24.5958 96.1405 24.5753C95.7825 24.5952 95.4255 24.5215 95.1044 24.3614C94.7834 24.2012 94.5092 23.9602 94.3089 23.6619L94.2178 24.4478H92.9065V16.3699H94.3089ZM94.4013 21.5934C94.3969 21.811 94.4357 22.0273 94.5156 22.2296C94.5955 22.4319 94.7149 22.6162 94.8667 22.7717C95.0184 22.9271 95.1996 23.0506 95.3996 23.135C95.5995 23.2193 95.8142 23.2627 96.0311 23.2627C96.248 23.2627 96.4627 23.2193 96.6627 23.135C96.8626 23.0506 97.0438 22.9271 97.1956 22.7717C97.3474 22.6162 97.4667 22.4319 97.5466 22.2296C97.6265 22.0273 97.6654 21.811 97.6609 21.5934C97.6736 21.3755 97.6409 21.1574 97.5649 20.9529C97.4889 20.7484 97.3713 20.562 97.2195 20.4057C97.0678 20.2493 96.8853 20.1264 96.6836 20.0447C96.4819 19.9631 96.2654 19.9245 96.048 19.9314C95.83 19.9279 95.6135 19.9685 95.4115 20.051C95.2095 20.1334 95.0262 20.2558 94.8724 20.411C94.7187 20.5661 94.5977 20.7508 94.5168 20.954C94.4358 21.1572 94.3966 21.3746 94.4013 21.5934Z" fill="#4A154B"/>
<path d="M106 16.3699V24.4478H104.689L104.596 23.6619C104.396 23.9602 104.122 24.2012 103.801 24.3614C103.48 24.5215 103.123 24.5952 102.765 24.5753C102.371 24.5958 101.978 24.5323 101.61 24.389C101.243 24.2458 100.91 24.026 100.634 23.7442C100.358 23.4624 100.144 23.125 100.007 22.7543C99.87 22.3835 99.813 21.9878 99.8397 21.5934C99.8023 21.1994 99.8507 20.802 99.9816 20.4287C100.112 20.0554 100.323 19.7152 100.598 19.4316C100.873 19.148 101.206 18.9278 101.574 18.7863C101.943 18.6448 102.337 18.5854 102.731 18.6122C103.09 18.611 103.445 18.6927 103.768 18.8511C104.092 19.0095 104.374 19.2402 104.594 19.5256V16.3699H106ZM101.243 21.5934C101.238 21.811 101.277 22.0273 101.357 22.2296C101.437 22.4319 101.556 22.6162 101.708 22.7717C101.86 22.9271 102.041 23.0506 102.241 23.135C102.441 23.2193 102.656 23.2627 102.873 23.2627C103.089 23.2627 103.304 23.2193 103.504 23.135C103.704 23.0506 103.885 22.9271 104.037 22.7717C104.189 22.6162 104.308 22.4319 104.388 22.2296C104.468 22.0273 104.507 21.811 104.502 21.5934C104.507 21.3746 104.468 21.1571 104.387 20.9539C104.306 20.7507 104.185 20.5659 104.031 20.4108C103.878 20.2556 103.694 20.1331 103.492 20.0508C103.29 19.9684 103.074 19.9278 102.856 19.9314C102.638 19.9247 102.422 19.9634 102.22 20.0452C102.019 20.1269 101.836 20.2498 101.685 20.4061C101.533 20.5625 101.415 20.7487 101.339 20.9531C101.263 21.1575 101.23 21.3756 101.243 21.5934Z" fill="#4A154B"/>
<path d="M60.7629 24.1944V11.314H57.6469V7.6777H60.7629V6.55862C60.7629 2.07264 63.7768 0 67.1289 0C68.6739 0.0263419 70.1787 0.49824 71.4637 1.35937L69.9398 4.45136C69.1997 3.91 68.3154 3.60258 67.4001 3.56843C65.9777 3.56843 64.8942 4.51922 64.8942 6.55862V7.67978H69.8046V11.3161H64.8942V24.1965L60.7629 24.1944Z" fill="#2EB67D"/>
<path d="M86.3631 7.44498H90.3252V24.3585H86.4307L86.2278 21.8884C85.2795 23.8779 82.6714 24.8391 80.8094 24.873C75.8645 24.907 72.2074 21.8198 72.2074 15.8844C72.2074 10.0522 76.0343 6.99832 80.9102 7.03294C83.1463 7.03294 85.2795 8.09662 86.2278 9.77731L86.3631 7.44498ZM76.3379 15.8858C76.3379 19.1101 78.5395 21.0318 81.2822 21.0318C87.7848 21.0318 87.7848 10.7745 81.2822 10.7745C78.5402 10.7745 76.3379 12.6609 76.3379 15.8858Z" fill="#E01E5A"/>
<path d="M24.336 15.1442H17.9094C17.9094 15.1442 16.4428 11.4255 19.1627 8.8037C20.1496 7.84043 22.7894 5.91391 26.8689 8.18807V13.6193C26.8689 13.6193 25.7888 12.4822 24.6155 12.629C24.456 12.6409 24.3004 12.6842 24.1576 12.7566C24.0149 12.8291 23.8878 12.9291 23.7838 13.051C23.6797 13.1729 23.6007 13.3143 23.5513 13.467C23.502 13.6197 23.4832 13.7806 23.4961 13.9406C23.5133 14.1991 23.6007 14.4478 23.7487 14.66C23.8968 14.8722 24.0999 15.0396 24.336 15.1442Z" fill="#E01E5A"/>
<path d="M18.3628 16.0008H26.6819C26.6819 16.0008 26.3885 17.3519 23.9903 17.7265C23.9903 18.1808 24.0041 18.6226 24.0041 18.6226C24.0041 18.6226 26.1235 18.3414 26.8703 17.3117V24.7907C26.8703 24.7907 19.6962 18.9972 18.3628 16.0008Z" fill="#E01E5A"/>
<path d="M24.7624 14.3353C24.6023 14.1151 24.3994 13.701 24.5422 13.532C24.7037 13.3409 25.2434 13.5431 25.5222 13.6927C25.9725 13.9532 26.3227 14.3577 26.5167 14.8415C26.5272 14.8649 26.5316 14.8906 26.5294 14.9161C26.5272 14.9417 26.5186 14.9663 26.5043 14.9875C26.4899 15.0087 26.4704 15.026 26.4476 15.0375C26.4248 15.049 26.3994 15.0545 26.3739 15.0534C26.0696 15.0574 25.768 14.9952 25.4898 14.8713C25.2117 14.7473 24.9635 14.5645 24.7624 14.3353Z" fill="#E01E5A"/>
<path d="M30.1988 15.1442H36.6255C36.6255 15.1442 38.0914 11.4255 35.3722 8.8037C34.3853 7.84043 31.7455 5.91391 27.666 8.18807V13.6193C27.666 13.6193 28.7461 12.4822 29.9193 12.629C30.0788 12.6409 30.2344 12.6844 30.3771 12.7568C30.5198 12.8293 30.6469 12.9293 30.7509 13.0512C30.8549 13.1731 30.9339 13.3145 30.9833 13.4671C31.0327 13.6197 31.0516 13.7807 31.0387 13.9406C31.0216 14.1991 30.9342 14.4478 30.7861 14.66C30.6381 14.8722 30.435 15.0396 30.1988 15.1442Z" fill="#E01E5A"/>
<path d="M36.1727 16.0008H27.853C27.853 16.0008 28.1463 17.3519 30.5446 17.7265C30.5446 18.1808 30.5308 18.6226 30.5308 18.6226C30.5308 18.6226 28.4113 18.3414 27.6646 17.3117V24.7907C27.6646 24.7907 34.8394 18.9972 36.1727 16.0008Z" fill="#E01E5A"/>
<path d="M29.773 14.3353C29.9324 14.1151 30.1353 13.701 29.9931 13.532C29.8316 13.3409 29.2919 13.5431 29.0131 13.6927C28.5628 13.9532 28.2126 14.3577 28.0186 14.8415C28.0079 14.8649 28.0034 14.8906 28.0055 14.9163C28.0076 14.9419 28.0162 14.9666 28.0306 14.9879C28.0449 15.0092 28.0645 15.0264 28.0874 15.0379C28.1104 15.0494 28.1359 15.0547 28.1615 15.0534C28.4658 15.0574 28.7674 14.9952 29.0455 14.8713C29.3237 14.7473 29.5718 14.5645 29.773 14.3353Z" fill="#E01E5A"/>
<path d="M55.887 15.3568V24.1931H51.753V15.3914C51.753 12.3375 50.1657 11.0426 47.9641 11.0426C45.521 11.0426 43.8301 13.1201 43.8301 15.6338V24.1931H39.6961V0.405823H43.8301V9.71989C44.4281 8.9042 45.2167 8.24837 46.1264 7.81006C47.0362 7.37175 48.0393 7.16436 49.0476 7.20613C53.789 7.20613 55.887 10.4332 55.887 15.3568Z" fill="#ECB22E"/>
<path d="M61.0967 28.606C61.0279 29.0941 60.7841 29.5403 60.411 29.861C60.0379 30.1818 59.561 30.355 59.0698 30.3483H57.7288L58.3589 26.9225H59.6999C59.9147 26.8994 60.1318 26.9298 60.3321 27.0112C60.5323 27.0925 60.7094 27.2223 60.8476 27.3889C60.9859 27.5554 61.0809 27.7537 61.1244 27.9661C61.1678 28.1784 61.1583 28.3982 61.0967 28.606ZM58.4818 29.7264H59.1843C59.4982 29.7313 59.8026 29.6188 60.0382 29.4108C60.2739 29.2027 60.4239 28.9141 60.459 28.6011C60.4983 28.4706 60.5049 28.3324 60.4783 28.1987C60.4517 28.065 60.3928 27.9399 60.3067 27.8344C60.2205 27.729 60.1099 27.6464 59.9844 27.594C59.859 27.5416 59.7226 27.521 59.5874 27.534H58.8848L58.4818 29.7264Z" fill="#757779"/>
<path d="M61.952 29.3542C61.9361 29.6527 62.1549 29.868 62.5731 29.868C62.8195 29.8674 63.0593 29.7886 63.2584 29.643L63.569 30.0204C63.2565 30.2739 62.8666 30.4118 62.4648 30.4109C62.2986 30.4347 62.1291 30.4158 61.9723 30.3559C61.8154 30.296 61.6763 30.1972 61.5679 30.0686C61.4596 29.94 61.3855 29.7859 61.3527 29.6207C61.32 29.4555 61.3295 29.2847 61.3805 29.1243C61.4391 28.7671 61.6239 28.443 61.901 28.2112C62.1781 27.9794 62.5292 27.8554 62.8899 27.8619C63.6946 27.8619 64.1052 28.3612 63.8299 29.3542H61.952ZM63.3495 28.8605C63.3675 28.5468 63.1528 28.3902 62.8119 28.3902C62.6533 28.3851 62.4967 28.427 62.3617 28.5106C62.2267 28.5942 62.1192 28.7159 62.0527 28.8605H63.3495Z" fill="#757779"/>
<path d="M65.3253 26.927L64.6966 30.3479H64.1072L64.7359 26.927H65.3253Z" fill="#757779"/>
<path d="M66.2617 27.9249L65.8159 30.3486H65.2217L65.6675 27.9249H66.2617ZM65.7372 27.2545C65.6516 27.7199 66.3535 27.7199 66.4391 27.2545C66.5247 26.7892 65.82 26.7892 65.7352 27.2545H65.7372Z" fill="#757779"/>
<path d="M69.2881 27.9297L67.8174 30.3576H67.1742L66.5917 27.9297H67.2398L67.4247 28.7275L67.6083 29.7462L68.1604 28.7379L68.6435 27.9297H69.2881Z" fill="#757779"/>
<path d="M69.823 29.3541C69.8071 29.6526 70.0259 29.868 70.4441 29.868C70.6905 29.8676 70.9304 29.7888 71.1294 29.6429L71.4407 30.0203C71.1281 30.2737 70.7383 30.4116 70.3364 30.4109C70.1702 30.4348 70.0007 30.416 69.8437 30.3561C69.6868 30.2963 69.5475 30.1975 69.4391 30.0688C69.3306 29.9402 69.2565 29.7861 69.2237 29.6208C69.1909 29.4556 69.2005 29.2847 69.2515 29.1242C69.3103 28.7671 69.4951 28.4431 69.7722 28.2113C70.0493 27.9795 70.4002 27.8555 70.7609 27.8618C71.5656 27.8618 71.9762 28.3611 71.7009 29.3541H69.823ZM71.2205 28.8604C71.2392 28.5467 71.0245 28.3902 70.6829 28.3902C70.5243 28.3851 70.3678 28.427 70.2328 28.5106C70.0978 28.5943 69.9903 28.7159 69.9237 28.8604H71.2205Z" fill="#757779"/>
<path d="M72.9728 27.9353L72.9652 28.2123C73.0501 28.0973 73.1624 28.0054 73.2917 27.9449C73.421 27.8845 73.5633 27.8573 73.7057 27.866C73.8127 27.8616 73.9194 27.8799 74.019 27.9196C74.1185 27.9594 74.2086 28.0197 74.2833 28.0966L73.9189 28.6153C73.8682 28.561 73.8059 28.5188 73.7368 28.4917C73.6677 28.4646 73.5934 28.4534 73.5193 28.4588C73.3457 28.452 73.1759 28.5112 73.0439 28.6246C72.9119 28.7379 72.8273 28.8971 72.8071 29.0703L72.5725 30.3431H71.9782L72.422 27.9304L72.9728 27.9353Z" fill="#757779"/>
<path d="M75.1364 27.9249L74.6912 30.3486H74.0956L74.5415 27.9249H75.1364ZM74.6112 27.2545C74.5256 27.7199 75.2275 27.7199 75.3137 27.2545C75.4 26.7892 74.6967 26.7892 74.6125 27.2545H74.6112Z" fill="#757779"/>
<path d="M76.9978 30.3479L77.2297 29.0855C77.2987 28.7185 77.1489 28.4394 76.7686 28.4394C76.5871 28.4502 76.4148 28.5231 76.2804 28.6459C76.146 28.7688 76.0577 28.9343 76.0302 29.1146L75.8031 30.3479H75.213L75.6582 27.9297H76.1896L76.1682 28.258C76.4 28.0364 76.7047 27.9076 77.0247 27.8958C77.5899 27.8958 77.9653 28.3217 77.8259 29.0807L77.5927 30.3479H76.9978Z" fill="#757779"/>
<path d="M80.483 27.6901L80.8606 28.0232L80.5293 28.3653C80.598 28.4695 80.6444 28.5869 80.6654 28.7101C80.6864 28.8332 80.6817 28.9594 80.6514 29.0807C80.621 29.2744 80.5438 29.4578 80.4265 29.6147C80.3092 29.7716 80.1554 29.8974 79.9786 29.9809C80.1223 30.05 80.2367 30.1683 80.3012 30.3146C80.3656 30.4609 80.3758 30.6255 80.3298 30.7787C80.2636 31.0971 80.0855 31.3811 79.8279 31.5787C79.5703 31.7763 79.2504 31.8743 78.9268 31.8548C78.2297 31.8548 77.7866 31.4296 77.906 30.7787H78.4961C78.4381 31.0917 78.6887 31.2973 79.0296 31.2973C79.1895 31.3101 79.3487 31.2647 79.478 31.1695C79.6074 31.0742 79.6983 30.9355 79.7342 30.7787C79.7957 30.4456 79.512 30.2939 79.2139 30.2939C79.0584 30.315 78.9001 30.2959 78.7541 30.2384C78.608 30.1809 78.479 30.087 78.3793 29.9655C78.2795 29.844 78.2124 29.6989 78.1842 29.5441C78.1559 29.3892 78.1676 29.2297 78.218 29.0807C78.2765 28.7386 78.4535 28.4282 78.7177 28.2042C78.982 27.9802 79.3166 27.857 79.6625 27.8563C79.848 27.8431 80.0326 27.8918 80.1877 27.9948L80.483 27.6901ZM78.8081 29.0807C78.7816 29.1592 78.7747 29.243 78.7879 29.3248C78.8012 29.4067 78.8342 29.484 78.8841 29.55C78.934 29.6161 78.9993 29.6689 79.0742 29.7038C79.1491 29.7387 79.2314 29.7547 79.3139 29.7503C79.4972 29.7448 79.6726 29.6747 79.8093 29.5522C79.946 29.4297 80.0353 29.2627 80.0614 29.0807C80.088 29.0021 80.0952 28.9183 80.0826 28.8363C80.07 28.7543 80.0378 28.6766 79.9888 28.6097C79.9398 28.5429 79.8755 28.4889 79.8012 28.4524C79.727 28.4159 79.645 28.3979 79.5624 28.3999C79.3766 28.4063 79.1991 28.4784 79.0611 28.6033C78.9231 28.7282 78.8335 28.898 78.8081 29.0827V29.0807Z" fill="#757779"/>
<path d="M84.1552 30.3528L84.4099 28.9678H82.7328L82.4775 30.3528H81.8343L82.4637 26.927H83.1076L82.8419 28.3709H84.5196L84.7853 26.927H85.4237L84.7936 30.3528H84.1552Z" fill="#757779"/>
<path d="M87.7083 27.9353H88.2777L87.8346 30.348H87.2735L87.3087 29.9955C87.2058 30.1254 87.0755 30.231 86.9272 30.3046C86.7789 30.3782 86.6163 30.4181 86.4509 30.4214C85.7379 30.4262 85.2921 29.9858 85.4481 29.1389C85.497 28.7817 85.6756 28.4553 85.9498 28.2223C86.2239 27.9893 86.5742 27.8661 86.9333 27.8764C87.0745 27.8654 87.2159 27.8967 87.3393 27.9663C87.4628 28.036 87.5629 28.1409 87.6269 28.2677L87.7083 27.9353ZM86.0444 29.1389C86.0161 29.2268 86.0099 29.3203 86.0262 29.4113C86.0425 29.5022 86.0808 29.5877 86.1379 29.6602C86.1949 29.7327 86.2688 29.7901 86.3531 29.8272C86.4374 29.8643 86.5296 29.88 86.6213 29.8729C87.5572 29.8729 87.8263 28.4097 86.8898 28.4097C86.6853 28.4097 86.4875 28.4832 86.3324 28.617C86.1773 28.7508 86.0751 28.9359 86.0444 29.1389Z" fill="#757779"/>
<path d="M88.1548 31.3562L88.7842 27.9353H89.3398L89.3177 28.2677C89.4253 28.1478 89.5565 28.0516 89.7029 27.9851C89.8494 27.9186 90.0079 27.8833 90.1687 27.8812C90.3264 27.8707 90.4843 27.8987 90.629 27.9628C90.7736 28.0269 90.9006 28.1252 90.999 28.2493C91.0975 28.3733 91.1646 28.5195 91.1945 28.6753C91.2244 28.831 91.2163 28.9918 91.1708 29.1437C91.1206 29.4937 90.9465 29.814 90.6804 30.0459C90.4143 30.2778 90.0739 30.4059 89.7214 30.4068C89.579 30.4202 89.4356 30.3951 89.306 30.3342C89.1764 30.2734 89.0654 30.1789 88.9844 30.0605L88.7469 31.3527L88.1548 31.3562ZM90.5752 29.1437C90.6002 29.0602 90.6045 28.9718 90.5876 28.8862C90.5707 28.8007 90.5332 28.7206 90.4783 28.653C90.4234 28.5854 90.3528 28.5324 90.2727 28.4985C90.1926 28.4646 90.1055 28.451 90.0189 28.4588C89.825 28.458 89.6371 28.5264 89.4889 28.6519C89.3407 28.7774 89.2418 28.9517 89.21 29.1437C89.1874 29.2271 89.1848 29.3148 89.2027 29.3994C89.2206 29.484 89.2583 29.5631 89.3128 29.6302C89.3673 29.6972 89.4369 29.7503 89.5159 29.7849C89.5949 29.8195 89.681 29.8347 89.767 29.8292C89.9599 29.8261 90.1457 29.7561 90.293 29.6311C90.4403 29.5062 90.54 29.334 90.5752 29.1437Z" fill="#757779"/>
<path d="M91.2046 31.3561L91.834 27.9352H92.3861L92.364 28.2676C92.4718 28.1478 92.603 28.0516 92.7496 27.9851C92.8962 27.9186 93.0549 27.8832 93.2157 27.8812C93.3734 27.8706 93.5313 27.8986 93.676 27.9627C93.8206 28.0268 93.9475 28.1251 94.046 28.2492C94.1444 28.3733 94.2114 28.5195 94.2412 28.6753C94.271 28.8311 94.2627 28.9918 94.2171 29.1436C94.1669 29.4937 93.9928 29.8139 93.7267 30.0458C93.4606 30.2778 93.1202 30.4059 92.7678 30.4067C92.6253 30.42 92.4819 30.395 92.3524 30.3341C92.2228 30.2732 92.1118 30.1788 92.0307 30.0605L91.7933 31.3527L91.2046 31.3561ZM93.6256 29.1436C93.6507 29.0601 93.655 28.9717 93.6381 28.8862C93.6212 28.8007 93.5837 28.7206 93.5288 28.653C93.4738 28.5854 93.4033 28.5323 93.3232 28.4985C93.2431 28.4646 93.1559 28.451 93.0694 28.4587C92.8754 28.4578 92.6875 28.5262 92.5392 28.6517C92.391 28.7772 92.2922 28.9516 92.2605 29.1436C92.2377 29.227 92.2351 29.3147 92.2528 29.3993C92.2706 29.4839 92.3083 29.5631 92.3627 29.6302C92.4171 29.6972 92.4867 29.7503 92.5657 29.7849C92.6447 29.8195 92.7308 29.8347 92.8168 29.8292C93.0097 29.8261 93.1957 29.7561 93.3431 29.6312C93.4905 29.5062 93.5903 29.334 93.6256 29.1436Z" fill="#757779"/>
<path d="M95.4807 27.9249L95.0349 30.3486H94.4407L94.8858 27.9249H95.4807ZM94.9555 27.2545C94.87 27.7199 95.5725 27.7199 95.6581 27.2545C95.7437 26.7892 95.0411 26.7892 94.9555 27.2545Z" fill="#757779"/>
<path d="M97.3419 30.3479L97.5745 29.0855C97.6435 28.7185 97.493 28.4394 97.1128 28.4394C96.9313 28.4502 96.7589 28.5231 96.6245 28.6459C96.4901 28.7688 96.4018 28.9343 96.3743 29.1146L96.1473 30.3479H95.5572L96.0023 27.9297H96.5337L96.5123 28.258C96.7442 28.0364 97.0488 27.9076 97.3688 27.8958C97.9347 27.8958 98.3095 28.3217 98.1701 29.0807L97.9368 30.3479H97.3419Z" fill="#757779"/>
<path d="M99.1413 29.3542C99.1254 29.6527 99.3442 29.868 99.7624 29.868C100.009 29.8675 100.249 29.7887 100.448 29.643L100.759 30.0204C100.446 30.2738 100.057 30.4117 99.6548 30.4109C99.4886 30.4349 99.319 30.416 99.1621 30.3562C99.0051 30.2964 98.8659 30.1975 98.7574 30.0689C98.649 29.9403 98.5749 29.7861 98.5421 29.6209C98.5093 29.4557 98.5188 29.2848 98.5699 29.1243C98.6286 28.767 98.8135 28.4429 99.0908 28.2111C99.368 27.9793 99.7191 27.8554 100.08 27.8619C100.885 27.8619 101.295 28.3612 101.019 29.3542H99.1413ZM100.539 28.8605C100.557 28.5468 100.343 28.3903 100.001 28.3903C99.8426 28.3851 99.6861 28.427 99.5511 28.5106C99.416 28.5942 99.3086 28.7159 99.2421 28.8605H100.539Z" fill="#757779"/>
<path d="M103.192 28.5765C103.122 28.5013 103.037 28.4429 102.941 28.4056C102.845 28.3683 102.743 28.3531 102.64 28.3612C102.357 28.3612 102.186 28.4484 102.157 28.6008C102.129 28.7531 102.254 28.8452 102.558 28.8653C103.005 28.8944 103.562 28.9969 103.444 29.6381C103.375 29.8904 103.218 30.1093 103.001 30.2549C102.784 30.4005 102.523 30.463 102.264 30.4311C102.07 30.4509 101.873 30.422 101.692 30.3468C101.512 30.2716 101.353 30.1525 101.229 30.0003L101.6 29.5744C101.7 29.6787 101.819 29.7622 101.95 29.8202C102.082 29.8782 102.223 29.9095 102.367 29.9124C102.59 29.9172 102.821 29.8002 102.854 29.6236C102.885 29.4574 102.761 29.3882 102.423 29.3688C101.976 29.3348 101.465 29.1686 101.566 28.6202C101.667 28.0717 102.28 27.8667 102.719 27.8667C102.88 27.8516 103.041 27.8723 103.193 27.9272C103.345 27.9822 103.482 28.0701 103.596 28.1846L103.192 28.5765Z" fill="#757779"/>
<path d="M105.588 28.5765C105.518 28.5012 105.432 28.4427 105.337 28.4054C105.241 28.3681 105.138 28.353 105.036 28.3612C104.753 28.3612 104.58 28.4484 104.553 28.6008C104.525 28.7531 104.649 28.8452 104.952 28.8653C105.401 28.8944 105.957 28.9969 105.839 29.6381C105.77 29.8903 105.613 30.1091 105.396 30.2547C105.18 30.4002 104.918 30.4628 104.66 30.431C104.465 30.4509 104.269 30.4219 104.088 30.3468C103.907 30.2716 103.748 30.1525 103.625 30.0003L103.996 29.5744C104.095 29.6786 104.214 29.7621 104.345 29.8201C104.477 29.8781 104.618 29.9095 104.762 29.9124C104.985 29.9172 105.217 29.8002 105.249 29.6236C105.28 29.4574 105.156 29.3881 104.818 29.3688C104.371 29.3348 103.861 29.1686 103.961 28.6202C104.062 28.0717 104.675 27.8667 105.115 27.8667C105.275 27.8516 105.437 27.8723 105.589 27.9272C105.74 27.9822 105.878 28.0701 105.992 28.1846L105.588 28.5765Z" fill="#757779"/>
</svg>
