<svg width="19" height="22" viewBox="0 0 19 22" fill="none" xmlns="http://www.w3.org/2000/svg">
<path d="M17.9901 20.1647L16.7402 6.61138C16.7061 6.24125 16.3875 5.95774 16.006 5.95774H13.4285V4.82582C13.4285 2.71626 11.6661 1 9.4997 1C7.33344 1 5.57118 2.71626 5.57118 4.82582V5.95774H2.99198C2.61039 5.95774 2.29181 6.24125 2.2577 6.61138L1.00295 20.218C0.984468 20.4188 1.05347 20.6178 1.19315 20.7666C1.33283 20.9153 1.53031 21 1.73722 21H17.2608C17.2614 21 17.2622 21 17.2628 21C17.67 21 18 20.6786 18 20.2821C17.9999 20.2422 17.9966 20.2029 17.9901 20.1647ZM7.04563 4.82582C7.04563 3.50792 8.14655 2.43572 9.4998 2.43572C10.8531 2.43572 11.9542 3.50792 11.9542 4.82582V5.95774H7.04563V4.82582ZM2.54365 19.5644L3.666 7.39346H5.57118V8.67719C5.57118 9.07364 5.90116 9.39505 6.30841 9.39505C6.71565 9.39505 7.04563 9.07364 7.04563 8.67719V7.39346H11.9542V8.67719C11.9542 9.07364 12.2842 9.39505 12.6914 9.39505C13.0986 9.39505 13.4286 9.07364 13.4286 8.67719V7.39346H15.332L16.4544 19.5644H2.54365Z" fill="#54B175" stroke="#54B175" stroke-width="0.5"/>
</svg>
